<?xml version="1.0" encoding="UTF-8"?>
<svg xmlns="http://www.w3.org/2000/svg" xmlns:xlink="http://www.w3.org/1999/xlink" width="167px" height="89px" viewBox="0 0 167 89" version="1.1">
  <title>logo-hhf-schwarz</title>
  <g id="Page-1" stroke="none" stroke-width="1" fill="none" fill-rule="evenodd">
    <g id="logo-hhf-schwarz" fill="#000000" fill-rule="nonzero">
      <g id="Gruppe_1">
        <path d="M167,80.4409562 L167,89 L6.04754475,89 C5.93315687,88.6931275 5.90008467,88.3617982 5.95155198,88.0383097 C5.95155198,86.6644664 6.0338315,85.2906231 5.95155198,83.9167798 C5.87584833,79.7002584 6.0682231,75.4831862 6.52750862,71.2911598 C6.8292002,65.905694 7.2405978,60.5339667 7.59714239,55.1622394 C7.76170143,52.9091364 7.89883396,50.6697718 8.07710626,48.4166688 C8.12938727,47.9304901 8.00259271,47.4419233 7.72056167,47.0428255 L0.479963869,36.3268477 C0.17001073,35.8735595 0.00282562928,35.3375849 0,34.7881432 C0,27.4609789 0,20.1338146 0,12.8066503 C0.030249976,12.3786612 0.209871495,11.9749866 0.507390376,11.6663603 C3.04891334,8.39661327 5.57672305,5.12228673 8.09081951,1.84338071 C8.46107735,1.37627398 8.89990146,0.991597857 9.29758581,0.565706432 C9.53322005,0.345857103 9.85802795,0.249252702 10.175234,0.304676204 L16.7850222,0.387106802 C16.9530239,0.414787211 17.1244108,0.414787211 17.2924125,0.387106802 C18.9137678,-0.0774334045 20.6258991,-0.124686162 22.2703235,0.249722472 C24.7249959,0.565706432 27.1796683,0.854213526 29.6480539,1.15645905 C29.9166566,1.17457944 30.1783816,1.24949532 30.4159961,1.37627398 L30.9919527,2.65394826 C32.0202187,2.87335716 33.0592894,3.03844627 34.1048612,3.14853185 C35.3527673,3.35460834 36.6006733,3.51946954 37.8622927,3.6705923 C38.3322858,3.66080372 38.7610612,3.93811632 38.9456397,4.37125239 C39.3059435,5.210077 40.0736824,5.80252929 40.9752012,5.93743376 C42.4150928,6.29463302 43.8412711,6.76173974 45.2674495,7.1601543 C45.6466983,7.23402049 45.9412049,7.53453168 46.0079652,7.91576812 C46.8307604,10.8420544 47.6809821,13.7683406 48.5174906,16.7083653 C48.6292547,17.0476901 48.6046599,17.417289 48.4489243,17.7387477 C46.7621941,21.3519556 45.1028905,24.9651635 43.4161603,28.5783714 C43.2721689,28.8585601 43.2721689,29.1911809 43.4161603,29.4713696 L47.0501724,38.4563048 C46.5037283,39.4055104 45.9039519,40.322881 45.2537362,41.2039914 C44.430941,42.4954041 43.5670061,43.7456015 42.7030711,45.0232758 C42.4862843,45.3311813 42.3843574,45.7055996 42.4150928,46.0811351 C42.8082061,52.7305367 43.1967482,59.3707794 43.5807193,66.0018631 C43.8549844,70.6454534 44.1155362,75.2936233 44.3623748,79.9463726 L44.3623748,80.3997409 L167,80.4409562 Z M15.7565282,45.1331833 C15.5234029,42.5640963 15.4411233,40.1323936 15.4136968,37.6869525 C15.3949647,37.0599981 15.2503866,36.4432447 14.988586,35.8734794 C13.960092,33.5654226 12.9590245,31.2573659 11.9168172,28.9218323 L12.5750534,28.5371561 L19.6648054,24.7178717 C21.0361307,23.9897348 22.2154705,23.1242135 23.9159139,23.7149661 C25.2841192,24.1196396 26.6902907,24.3820545 28.1121695,24.4980568 C29.4834948,24.6766564 30.9645262,25.3773165 32.4181311,24.6354411 L33.2409263,24.346934 C34.31056,23.9485195 35.4213336,23.6187971 36.4224011,23.1516904 C36.7260143,21.5124289 36.8456063,19.8442821 36.7789456,18.1783776 C35.1470685,18.1234239 33.5974708,17.8486552 32.0204467,17.8486552 C31.5171157,17.8450533 31.0157604,17.7851488 30.5257021,17.6700556 L24.8072754,16.4748119 C24.2755188,16.3498748 23.716201,16.4334349 23.2439645,16.7083653 C21.9823452,17.4639791 20.6932994,18.0822086 19.4179668,18.8652993 C16.3050583,20.6512956 13.1784365,22.409815 10.0792413,24.2095497 C9.36615208,24.6217027 8.51593037,24.8964714 8.11824602,25.7070389 C7.58342913,26.8061136 7.07603876,27.9326651 6.56864838,29.0592166 C6.15725078,29.9522147 5.77327968,30.8589513 5.19732304,31.8069032 C4.90987586,30.9756689 4.75709729,30.1036959 4.74478568,29.2240778 C4.74478568,24.2095497 4.74478568,19.2087601 4.74478568,14.194232 L4.74478568,13.3561876 L12.0813763,5.55275763 C12.1591078,5.67390863 12.2462269,5.78874943 12.3419281,5.89621846 C13.8640992,7.98446028 15.3999836,10.0864405 16.8947282,12.1884208 C17.1253788,12.5461254 17.2089203,12.9793696 17.1278535,13.3974029 C16.9632945,14.7712462 16.8673017,16.1450895 16.7438824,17.4227638 C16.7140361,17.5481693 16.7444815,17.6803418 16.8261619,17.779963 C17.0181475,17.9036089 17.1689933,17.779963 17.3472656,17.779963 L22.1469043,15.2383529 C22.9805062,14.4686153 23.3231554,13.301469 23.0382657,12.2021592 C22.968804,12.0513739 22.8909739,11.9046012 22.8051404,11.7625294 L21.0635572,9.01484276 L17.7038101,3.5881617 C17.5543421,3.23597243 17.2081515,3.00836769 16.8261619,3.01043675 C15.1394318,3.01043675 13.4527016,3.01043675 11.7796847,3.01043675 C11.3983908,2.99783107 11.0347274,3.17229949 10.8060437,3.47825424 C8.063393,6.74800131 5.32074232,10.0131689 2.57809164,13.273757 C2.29593136,13.5836599 2.15228734,13.9955339 2.18040729,14.414047 C2.40896152,20.156712 2.59637598,25.8810591 2.74265068,31.5870883 C2.74265068,32.7548551 2.8249302,33.9088835 2.85235671,35.0629118 C2.84838785,35.3586132 2.93976572,35.6477048 3.11290852,35.8872178 L5.30702907,38.6349044 L11.3134341,46.1498273 C11.3134341,48.3342382 10.9980292,50.4774337 10.9431762,52.6481061 C10.9431762,54.3516718 10.7923304,56.0552375 10.6551979,57.7450648 C10.4220726,60.4103208 10.3397931,63.0893153 10.120381,65.7408328 C9.90096896,68.3923504 9.84611595,70.7416225 9.64041715,73.2420173 C9.51699787,74.7532449 9.64041715,76.2644726 9.40729184,77.7757002 C9.10126608,78.9076143 9.69113009,80.0895085 10.7786172,80.5233868 C12.8981528,81.587838 15.203153,82.2316241 17.5666776,82.4192906 C18.7048776,82.5566749 19.8567909,82.6116286 21.0772705,82.7077977 C21.5572344,73.0908945 21.7629332,63.4739914 22.1743308,53.9257804 C21.6943669,53.5823196 21.0635572,53.5685812 20.8030054,52.991567 L23.1342585,50.2438804 L22.5308753,49.8866811 C21.9018321,49.5992066 21.3081954,49.2396044 20.7618657,48.8150833 C19.1162753,47.537409 17.8546559,45.7651512 15.7565282,45.1057064 M24.3821646,54.3791487 C24.5192971,63.3640839 24.080473,72.3490191 24.0530465,81.3751697 C24.7050353,81.3920031 25.3571294,81.3459966 26.0003285,81.2377853 C26.1786008,77.3085935 26.0003285,73.4068785 26.137461,69.4502098 C26.8779767,69.6700247 27.5087863,69.3128254 28.2904418,69.6425478 L28.2904418,81.1553547 C28.9506483,81.1793469 29.6116593,81.1425567 30.2651503,81.0454473 C30.2651503,72.4314497 29.8811792,63.8861444 29.9223189,55.3271006 C29.3875928,55.0559705 28.7934691,54.9237005 28.194449,54.9424245 L28.194449,66.2354164 L26.0551815,66.1804627 L26.0551815,54.6676558 C25.5318436,54.354621 24.909663,54.2515519 24.3135983,54.3791487 M33.9951552,80.6195558 C33.6386106,76.9651326 33.8168829,73.296971 33.5700443,69.6288094 L35.8464444,69.7936706 C35.6955986,73.3656632 36.2441288,76.9101789 36.1618492,80.5096484 C36.8529294,80.5349321 37.5443635,80.4702798 38.2188372,80.3173103 L36.8475119,56.2200987 C36.3321698,56.0431491 35.7862926,55.9730364 35.2430613,56.0140222 C35.1333552,59.5860148 35.6133191,63.1167921 35.5584661,66.7162616 L33.5151913,66.5514004 C33.391772,62.9107156 33.0900805,59.3249846 33.1449335,55.8079457 C32.5779333,55.5463763 31.9371784,55.492882 31.334784,55.656823 C31.7461816,64.064744 31.6639021,72.5138803 32.0478732,81.0179704 C32.7154393,80.9660589 33.3766148,80.8510607 34.0225817,80.6745096 M30.6902611,15.8016287 L31.6090491,13.0539421 L27.5224996,4.11022216 C25.328379,3.9178841 23.2028248,3.45077737 21.0361307,3.35460834 C21.0066074,3.60465522 21.0647816,3.85720658 21.2006898,4.06900686 C22.6542946,6.65183227 24.080473,9.24839612 25.5752176,11.8037447 C25.931958,12.375668 25.9733076,13.0902579 25.6849236,13.6996484 C25.5034775,14.0606111 25.4549185,14.4741205 25.5477911,14.8674152 C27.2482345,15.1421839 28.9075382,15.7191981 30.6902611,15.8565824 M40.0015602,8.79502783 C40.4678108,10.1688711 40.9340614,11.5427144 41.3728855,12.9165577 C41.6197241,13.7133869 42.0859747,14.4277854 41.6197241,15.3894757 C40.9889144,16.763319 40.5500903,18.1371623 40.0015602,19.5110056 C39.4530301,20.8848489 38.8496469,22.2586922 38.3422565,23.7561814 C38.003486,24.435207 37.7721685,25.1628778 37.6565939,25.9131154 L40.4952373,26.4901296 C40.5488571,26.4221185 40.5948446,26.3484033 40.6323698,26.2703147 L45.075464,16.3099507 C45.3089648,15.9526412 45.3741385,15.5106553 45.2537362,15.1009686 C44.7463459,13.3561876 44.2526687,11.5976682 43.7727049,9.85288718 C43.6860581,9.51615295 43.4037925,9.26599805 43.0596157,9.22091926 C42.6594496,9.10182254 42.2516895,9.0100228 41.8391361,8.94615059 C41.235753,8.94615059 40.7009361,8.4927823 39.9467072,8.67138193 M30.3474298,5.30546584 L30.1691575,5.56649606 L33.9403022,12.765435 C33.7071769,13.9469402 32.8158154,14.7162925 32.5689768,15.8703209 L38.0542782,16.6808884 L39.2747578,14.1530167 C39.3716453,13.9439173 39.3716453,13.7026714 39.2747578,13.4935719 C38.6028083,11.7075756 37.9034324,9.92157934 37.2589095,8.16305991 C37.0854701,7.50234845 36.8027167,6.87543386 36.4224011,6.30837145 L30.3200033,5.36041957 M41.8802759,79.671604 C41.7705699,76.2232573 41.3591723,72.8023874 41.2083265,69.5051635 C41.5100181,69.2441333 41.8665627,69.5051635 42.154541,69.1617027 C42.1680437,68.302317 42.1130158,67.4432236 41.9899819,66.5926157 C41.6471506,66.3453239 41.3043193,66.5926157 40.9477747,66.3865392 C40.7557891,63.9823134 40.5638036,61.5506108 40.371818,59.1601234 C40.7557891,58.9952622 41.0849072,59.2975077 41.3728855,58.8716163 C41.1671867,58.1297409 41.3043193,57.2642196 41.1123337,56.3986984 L38.6439481,56.3162678 C38.369683,57.1405737 39.8507144,79.671604 40.2346855,80.1524491 C40.7644447,79.9589495 41.3180817,79.8387745 41.8802759,79.7952499 M30.0731647,32.4113943 C30.0062799,32.4946233 29.9784684,32.6027053 29.9968536,32.7079567 C30.0152388,32.813208 30.0780349,32.9054046 30.1691575,32.9609316 C31.2525045,34.3347749 32.308425,35.8047872 33.4191986,37.192369 C34.1353092,37.9235031 34.5217729,38.9162551 34.4888323,39.9400556 C34.3928395,41.1490377 34.4888323,42.3717582 34.4888323,43.5944788 C34.4888323,43.7181247 34.3928395,43.8967243 34.7356709,43.9928933 L37.3823288,37.0137693 L34.1322877,32.1091487 C32.6923961,32.1091487 31.3896371,32.466348 30.1005912,32.4526096 M31.4719166,29.7049229 L36.1344227,25.7757311 L36.0110034,25.6383468 C34.7630974,26.407699 33.4877648,27.1495744 32.2809985,27.9876188 C31.7036359,28.3921637 30.9523316,28.4500625 30.3200033,28.1387416 L26.137461,26.4901296 C23.8336344,27.3968662 21.5023813,27.9601419 19.2808343,29.0454782 C20.1917572,29.1408853 21.1084914,29.1684378 22.023485,29.1279088 C22.7360278,29.0722039 23.4387253,29.321845 23.9570537,29.8148304 C24.75403,30.4983253 25.6231147,31.0925993 26.5488586,31.5870883 C26.1100345,30.4193215 25.3969453,29.5675386 24.9581212,28.564633 C25.0449916,28.2770314 25.2356527,28.0321452 25.4929381,27.8777113 C27.5473649,28.3446362 29.5678428,28.9505156 31.5404828,29.6911845" id="Pfad_1"></path>
      </g>
      <polygon id="Pfad_3" points="108 65 167 65 167 76 108 76"></polygon>
      <g id="Gruppe_22" transform="translate(53.000000, 22.000000)">
        <g id="Gruppe_3" transform="translate(30.824152, 0.073649)">
          <path d="M0,0.191894979 C2.78571252,-0.132807726 5.60411132,-0.0450697944 8.36420496,0.452276172 C10.2615978,0.974454812 11.6874222,2.54360063 12.0252586,4.48133253 C12.7270162,6.81538877 12.571406,9.32322432 11.5864806,11.5527376 C11.1273937,12.432841 10.4528408,13.1824561 9.6256916,13.731717 L13.2456098,24.2977118 C13.1087463,24.5822006 12.8210113,24.7632675 12.505172,24.7636571 L8.87154198,24.7636571 C8.51142511,24.4370275 8.27427448,23.996847 8.19966322,23.5165682 C7.28554246,20.6934879 6.40341592,17.8704076 5.55328362,15.0473273 C5.52113737,14.9521824 5.47980733,14.8603884 5.42987732,14.7732418 C5.10160904,14.6572452 4.74347155,14.6572452 4.41520327,14.7732418 L4.41520327,24.7225442 L0,24.7225442 L0,0.191894979 Z M4.45633871,4.44021971 L4.45633871,10.5934384 C5.14192928,10.5934384 5.82751985,10.5934384 6.40341592,10.5934384 C7.01030098,10.5778464 7.53468444,10.1652609 7.6923262,9.57932221 C8.00763446,8.31039351 8.00763446,6.98364583 7.6923262,5.71471713 C7.57759414,5.03731331 7.0076552,4.53034652 6.32114506,4.4950368 C5.67977394,4.40592271 5.02915076,4.40592271 4.38777965,4.4950368" id="Pfad_4"></path>
        </g>
        <g id="Gruppe_4" transform="translate(88.112100, 0.150854)">
          <path d="M9.66682704,13.6408083 L13.2867452,24.2890287 L12.8205437,24.7138612 L8.94010103,24.7138612 C8.6595126,24.544261 8.46114775,24.2667029 8.39162858,23.9464219 C7.47750782,21.0137074 6.56338706,18.0901291 5.6492663,15.1756869 C5.59816642,15.0173194 5.53866431,14.8617841 5.47101275,14.7097416 C5.14054003,14.6073888 4.78681142,14.6073888 4.45633871,14.7097416 L4.45633871,24.6316355 L0,24.6316355 L0,0.279141823 C0.15638823,0.0791009187 0.405928416,-0.0248169984 0.658166947,0.00505635644 C2.67380322,0.00505635644 4.77171037,0.00505635644 6.71878759,0.00505635644 C10.0644696,0.169507636 11.8881405,2.30737428 12.3132066,5.48676569 C12.5721439,7.04563817 12.5067957,8.64112288 12.1212413,10.1736272 C11.7633035,11.5835026 10.8869414,12.8067991 9.66682704,13.5996955 M4.45633871,10.4477126 C5.21506268,10.5299778 5.98169767,10.5022833 6.7324994,10.365487 C7.28719306,10.2479523 7.71228559,9.80130581 7.80202069,9.24173658 C8.02832638,8.04636562 8.02832638,6.81917938 7.80202069,5.62380842 C7.73623485,5.03986176 7.32491999,4.55304616 6.75992302,4.39042382 C5.99417858,4.24675697 5.20837133,4.24675697 4.44262689,4.39042382 L4.45633871,10.4477126 Z" id="Pfad_5"></path>
        </g>
        <g id="Gruppe_5" transform="translate(45.619197, 0.153510)">
          <path d="M0,24.6563876 L0,0.221668229 C0.14340193,0.065646878 0.350950216,-0.0153030484 0.562184268,0.00239985575 C2.45441424,0.00239985575 4.34664421,0.00239985575 6.23887419,0.00239985575 C9.24195707,-0.0437524706 11.7236301,2.33270096 11.8058696,5.33336218 C12.2720436,9.88957309 12.2720436,14.4814246 11.8058696,19.0376355 C11.7209849,20.8690517 10.8014293,22.5607097 9.31031994,23.6285671 C8.33924683,24.2641617 7.2075499,24.611088 6.04690883,24.628979 C4.14096704,24.7112047 2.22131345,24.628979 0.315371662,24.628979 L0,24.628979 M4.47005052,4.3466545 L4.47005052,20.3532457 C6.34856868,20.7232611 7.2124128,20.1065688 7.40437816,18.462056 C7.66468323,15.7293866 7.76540731,12.9838764 7.70603801,10.239492 C7.68061684,8.64431213 7.52469653,7.05388253 7.23983642,5.48410919 C7.18404388,4.87048698 6.70130076,4.38226547 6.08804426,4.31924595 C5.5529873,4.22327262 5.00510748,4.22327262 4.47005052,4.31924595" id="Pfad_6"></path>
        </g>
        <g id="Gruppe_6" transform="translate(0.000000, 29.359717)">
          <path d="M0,0.04111282 L4.30550878,0.04111282 C4.30550878,0.04111282 4.30550878,6.67398111 4.38777965,10.0178238 L7.40437816,10.0178238 L7.40437816,0 L11.8332932,0 L11.8332932,24.5991706 L7.50036084,24.5991706 L7.50036084,14.1976272 L4.41520327,14.1976272 L4.41520327,24.5854663 L0,24.5854663 L0,0.04111282 Z" id="Pfad_7"></path>
        </g>
        <g id="Gruppe_7" transform="translate(0.000000, 0.210727)">
          <path d="M7.4592254,24.6128749 L7.4592254,14.1565143 L4.41520327,14.1565143 L4.41520327,24.6128749 L0,24.6128749 L0,0.12333846 L4.38777965,0.12333846 C4.38777965,0.12333846 4.38777965,6.66027684 4.38777965,10.0178238 L7.40437816,10.0178238 L7.40437816,0 L11.8470051,0 L11.8470051,24.667692 L7.4592254,24.6128749 Z" id="Pfad_8"></path>
        </g>
        <g id="Gruppe_8" transform="translate(73.451357, 0.139932)">
          <path d="M0.0165281102,12.9116995 C-0.0497229357,10.483819 0.0832699186,8.05459611 0.414170641,5.64843461 C0.529994338,4.03809524 1.28141542,2.53977914 2.50299071,1.48337612 C3.724566,0.426973108 5.3161368,-0.100900833 6.92728106,0.0159782697 C7.57211617,0.0658784732 8.2055686,0.213756825 8.80579922,0.454515016 C10.6855979,1.18271128 12.0686804,2.8126135 12.4805647,4.78506539 C12.8869153,6.82411815 13.0753676,8.90054805 13.0427489,10.9793969 C13.1251477,13.8148462 13.028975,16.652668 12.7548009,19.4760464 C12.4814971,22.7553187 9.70559718,25.2578845 6.41380478,25.1926646 C3.12201238,25.1274447 0.44752964,22.5168911 0.30447615,19.2293695 C0.0828364472,17.1311437 -0.00875045794,15.0212261 0.0302399216,12.9116995 M4.59627312,11.7194277 C4.59627312,12.7198396 4.59627312,13.5009832 4.59627312,14.2821268 C4.60102409,15.8764308 4.70175943,17.4690046 4.89793297,19.0512139 C4.89059834,19.4837489 5.05551415,19.9014743 5.3563884,20.2124638 C5.65726265,20.5234533 6.06943992,20.7022226 6.5022149,20.709431 L6.65304483,20.709431 C7.65400706,20.709431 8.02422597,20.2708942 8.25732676,19.0786225 C8.52921046,16.4659283 8.6162682,13.8373143 8.51785118,11.2123696 C8.55423558,9.49075326 8.46717127,7.76874355 8.25732676,6.05956281 C8.23487835,5.20207135 7.5248761,4.52304614 6.66675664,4.53838847 L6.59819758,4.53838847 C5.50125267,4.53838847 4.9390684,5.15508077 4.82937391,6.45698673 C4.67854399,8.27965509 4.65112036,10.1023234 4.62369674,11.7057234" id="Pfad_9"></path>
        </g>
        <g id="Gruppe_9" transform="translate(13.464999, 0.183319)">
          <path d="M15.7548713,24.1880424 C15.5950257,24.4704733 15.2978976,24.6476102 14.9732981,24.6539877 C13.8626413,24.6539877 12.7519846,24.6539877 11.7098869,24.6539877 C11.3475105,24.4650748 11.1088489,24.1020938 11.0791436,23.6946886 C10.8186192,22.5709382 10.5580948,21.4471878 10.3112822,20.3234373 C10.263286,20.1695083 10.1671683,20.0350175 10.0370459,19.9397177 L5.58070724,19.9397177 C5.11450565,21.5157091 4.89511667,23.1465176 4.36035603,24.6951005 L0.671878759,24.6951005 C0.375789853,24.6851634 0.11294896,24.5028843 0,24.2291552 L5.92350253,0 C7.07529468,0 8.19966322,0 9.32403175,0 C9.80394515,0 9.87250421,0.465945293 9.96848689,0.835960673 C10.4484003,2.76826321 10.9146019,4.70056575 11.339668,6.63286829 C12.3132066,10.6071076 13.3004571,14.5676425 14.2877075,18.5418818 C14.7539091,20.4330715 15.2063988,22.3242612 15.6588886,24.2428595 M7.95285061,10.3193178 L7.76088525,10.3193178 L6.51311042,15.8010271 L9.2554727,15.8010271 L7.96656242,10.3193178" id="Pfad_10"></path>
        </g>
        <g id="Gruppe_10" transform="translate(102.920856, 0.251840)">
          <path d="M4.44262689,14.4443041 L4.44262689,20.1863946 L11.0791436,20.1863946 L11.0791436,24.5717621 L0,24.5717621 L0,0 L11.0791436,0 L11.0791436,4.22091618 L4.42891508,4.22091618 L4.42891508,10.0041195 L10.2290113,10.0041195 C10.2290113,11.3745469 10.2290113,14.2798528 10.2290113,14.2798528 L5.22420014,14.2798528 C4.96008887,14.2348872 4.68855523,14.2833487 4.45633871,14.4168955" id="Pfad_11"></path>
        </g>
        <g id="Gruppe_11" transform="translate(13.602117, 29.400829)">
          <path d="M0,0 L10.9694491,0 L10.9694491,4.20721191 L4.41520327,4.20721191 L4.41520327,10.0452323 L10.2701467,10.0452323 L10.2701467,14.3620784 C10.2701467,14.3620784 6.6090931,14.3620784 5.21048833,14.3620784 C4.95953472,14.3321161 4.70506571,14.3650847 4.47005052,14.4580084 L4.47005052,20.1863946 L11.05172,20.1863946 L11.05172,24.5717621 L0.0822708684,24.5717621 L0,0 Z" id="Pfad_12"></path>
        </g>
        <g id="Gruppe_12" transform="translate(38.927833, 29.288785)">
          <path d="M0.0822708684,0.0298183081 L3.88044263,0.0298183081 C5.13705503,-0.047650613 6.3984289,0.0259657624 7.63747895,0.249086681 C9.69804388,0.692225505 11.3076398,2.30093655 11.7510224,4.36036868 C12.2311645,6.49443137 12.2311645,8.70842727 11.7510224,10.84249 C11.3561409,13.4539764 9.15419593,15.4127453 6.51311042,15.5019429 L4.51118595,15.6389856 L4.51118595,24.7112146 L0,24.7112146 C0,16.4886506 0,8.34831222 0.0822708684,0.0435225814 M4.53860957,11.2673224 L5.62184268,11.2673224 C5.84994373,11.2871177 6.07933219,11.2871177 6.30743325,11.2673224 C7.04991656,11.232752 7.64402495,10.6389702 7.67861439,9.8968951 C7.89107343,8.50712334 7.89107343,7.09315923 7.67861439,5.70338746 C7.62001777,5.21729615 7.30640299,4.79937299 6.8559057,4.6070456 C6.11124723,4.37291075 5.32116864,4.32120785 4.55232139,4.45629859 L4.53860957,11.2673224 Z" id="Pfad_13"></path>
        </g>
        <g id="Gruppe_13" transform="translate(59.224764, 0.000000)">
          <path d="M12.6936873,8.02216299 C11.185388,8.15920573 8.31961946,8.09068436 8.31961946,8.09068436 C8.31961946,8.09068436 8.20992497,6.84359549 8.18250135,6.26801601 C8.21433711,5.57472521 7.82448616,4.93074244 7.19525093,4.63720748 C6.46435031,4.24101727 5.55050058,4.51073059 5.15219103,5.24019551 C5.10411373,5.32168262 5.0672183,5.40926109 5.04249654,5.5005767 C4.69246124,6.73365776 4.55794023,8.01785893 4.64485401,9.29666041 C4.52829502,12.1512858 4.55575347,15.0099685 4.72712488,17.8618312 C4.73875581,18.450759 4.82631926,19.0357298 4.98764929,19.602274 C5.20632968,20.3817623 5.96803346,20.8795256 6.77018477,20.7671372 C7.52746721,20.7671372 8.14136591,20.153576 8.14136591,19.3967099 C8.26477222,18.7114962 8.33333127,17.2725475 8.33333127,17.2725475 L12.570281,17.2725475 C13.1050416,20.3286004 12.3097566,23.2064978 9.34800532,24.618038 C6.29231716,26.1575423 2.56647581,24.9305923 1.0249358,21.8771833 C0.670148848,21.1851095 0.451383288,20.4314811 0.380480661,19.657091 C0.0221524687,16.610402 -0.0833312789,13.5393039 0.0651089986,10.4752279 C0.0651089986,8.98146212 0.229650735,7.48769633 0.366768849,6.00763481 C0.50779772,2.55297171 3.42323912,-0.133894227 6.87987927,0.00516309663 C7.75141506,0.0471302801 8.60523251,0.266296176 9.38914075,0.649263943 C11.3530882,1.54299291 12.6318608,3.4813985 12.6799755,5.63761943 C12.6799755,6.40505874 12.6799755,7.18620232 12.6799755,8.06327581" id="Pfad_14"></path>
        </g>
        <g id="Gruppe_14" transform="translate(26.367813, 29.387125)">
          <path d="M4.3329324,20.2000989 L10.9694491,20.2000989 L10.9694491,24.5854663 L0,24.5854663 L0,0 L4.2095261,0 C4.27808516,2.2612051 4.2095261,4.4675931 4.2095261,6.67398111 C4.2095261,8.88036912 4.2095261,11.1689828 4.2095261,13.4164836 L4.2095261,20.2000989" id="Pfad_15"></path>
        </g>
        <g id="Gruppe_15" transform="translate(73.303344, 29.017110)">
          <path d="M5.59441905,11.0867571 L4.01756074,11.0867571 C4.01756074,11.0867571 2.6463796,7.44142042 1.78253548,5.60504779 L1.78253548,11.0867571 L0,11.0182358 L0,0 L1.67284099,0 L3.67476546,5.30355378 L3.83930719,5.30355378 L3.83930719,0.0959299133 L5.59441905,0.0959299133 L5.59441905,11.0867571 Z" id="Pfad_16"></path>
        </g>
        <g id="Gruppe_16" transform="translate(107.815973, 29.058223)">
          <polyline id="Pfad_17" points="3.75703632 5.41318796 3.75703632 0 5.58070724 0 5.58070724 10.9634187 3.90786625 10.9634187 1.93336541 5.65986488 1.79624729 5.65986488 1.79624729 10.9086016 0 10.9908272 0 0.0274085467 1.67284099 0.0274085467 3.61991821 5.39948369 3.77074814 5.39948369"></polyline>
        </g>
        <g id="Gruppe_17" transform="translate(79.953572, 28.941742)">
          <path d="M0.0274236228,0.0342550209 C1.22025195,-0.0508820753 2.41911124,0.022853323 3.59249459,0.253523394 C4.40791906,0.473285101 5.0060524,1.16891218 5.10079384,2.00767038 C5.44350567,4.32021431 5.44350567,6.67060157 5.10079384,8.9831455 C4.99940924,10.1430683 4.05676515,11.0500839 2.89319221,11.1073079 C1.93087288,11.1849193 0.964917412,11.2077966 0,11.1758292 L0.0274236228,0.0342550209 Z M1.87851816,1.87062765 L1.87851816,9.42168225 C2.31950771,9.50689812 2.77638705,9.41851848 3.15371662,9.17500533 C3.28680396,8.99075902 3.36306459,8.77163026 3.37310561,8.54460876 C3.61302064,6.65184681 3.61302064,4.73639299 3.37310561,2.84363105 C3.23598749,1.89803619 2.92061583,1.70617637 1.86480635,1.87062765" id="Pfad_18"></path>
        </g>
        <g id="Gruppe_18" transform="translate(60.364494, 29.039044)">
          <path d="M5.75386054,5.26791487 C5.75386054,6.37796101 5.75386054,7.48800715 5.61674243,8.59805329 C5.55469489,9.91893633 4.58775627,11.0217773 3.28573449,11.2566823 C2.5655432,11.3666996 1.83115028,11.1857746 1.2446227,10.7538339 C0.658095124,10.3218933 0.267646444,9.67444337 0.15944149,8.9543644 C0.152698934,8.87227683 0.152698934,8.78977505 0.15944149,8.70768748 C-0.0531471633,6.66211709 -0.0531471633,4.60003915 0.15944149,2.55446876 C0.235110994,1.44562914 0.973274816,0.492231676 2.0282363,0.140771171 C3.08319778,-0.210689335 4.24608197,0.109373829 4.97228729,0.951068777 C5.39478603,1.52986635 5.63363166,2.22213787 5.65787786,2.93818841 C5.65787786,3.71933199 5.74014873,4.48677129 5.78128416,5.26791487 M1.91455335,5.54200034 L1.91455335,5.54200034 L1.91455335,6.73427212 C1.8895717,7.36673328 1.92631012,8.00012252 2.02424784,8.62546184 C2.05371141,9.11221767 2.46929893,9.48481917 2.95665102,9.46142251 C3.51883528,9.46142251 3.68337702,9.06399859 3.80678332,8.62546184 C3.81422936,8.53882763 3.81422936,8.45171485 3.80678332,8.36508065 C3.96213035,6.54114238 3.96213035,4.70730959 3.80678332,2.88337132 C3.77944838,2.67586804 3.72409725,2.47302545 3.64224159,2.28038329 C3.5139297,1.98357614 3.21050673,1.80162245 2.88809196,1.82814227 C2.56553009,1.81526762 2.26524195,1.99212585 2.12023052,2.28038329 C1.98229038,2.56622293 1.91638749,2.88144196 1.92826516,3.1985696 C1.92826516,3.99341745 1.92826516,4.78826531 1.92826516,5.58311316" id="Pfad_19"></path>
        </g>
        <g id="Gruppe_19" transform="translate(100.973779, 29.161331)">
          <path d="M0,5.80343358 C0,4.57004899 0,3.4325943 0.205677171,2.30884389 C0.418100666,0.978719491 1.56605761,0 2.91375992,0 C4.26146224,0 5.40941918,0.978719491 5.62184268,2.30884389 C5.84126877,4.41360477 5.84126877,6.53545728 5.62184268,8.64021816 C5.48420119,9.93647447 4.45214283,10.9565044 3.15371662,11.0795788 C1.7859881,11.1944185 0.543954832,10.280972 0.246812605,8.94171218 C0.189232358,8.76382436 0.152423141,8.57987945 0.137118114,8.39354124 C0.137118114,7.47535493 0.0411354342,6.54346434 0,5.73491222 M3.83930719,5.4334182 L3.83930719,5.4334182 L3.83930719,2.92553619 C3.84649333,2.83889104 3.84649333,2.75180014 3.83930719,2.66515499 C3.74332451,1.9936456 3.44166466,1.66474304 2.92061583,1.66474304 C2.399567,1.66474304 2.07048352,2.07587124 2.01563628,2.58292935 C1.80313724,4.50481416 1.80313724,6.44424789 2.01563628,8.3661327 C2.11161896,9.10616346 2.44070243,9.38024892 3.0028867,9.3391361 C3.56507096,9.29802328 3.79817176,8.7772609 3.81188357,8.27020278 C3.81188357,7.3383122 3.81188357,6.42012588 3.81188357,5.52934812" id="Pfad_20"></path>
        </g>
        <g id="Gruppe_20" transform="translate(66.968487, 29.058223)">
          <path d="M0.0548472456,0.0137042733 L1.94707722,0.0137042733 C1.94707722,0.0137042733 1.94707722,5.4954136 1.94707722,7.7566187 C1.9330439,8.00766797 1.9330439,8.25930447 1.94707722,8.51035374 C1.95421474,8.7030347 2.03771454,8.88497238 2.17917591,9.01607355 C2.32063729,9.14717471 2.50845026,9.21667964 2.70122685,9.20927167 C2.88908525,9.23230403 3.07826212,9.17824809 3.22554899,9.05945034 C3.37283585,8.9406526 3.46565276,8.76725974 3.4828001,8.5788751 L3.4828001,8.5788751 C3.51733396,8.28753595 3.51733396,7.99314076 3.4828001,7.70180161 L3.4828001,0 L5.19677652,0 C5.19677652,0 5.2927592,5.76949907 5.2927592,8.31849391 C5.33388515,9.00797253 5.09776976,9.68530943 4.63688414,10.1999823 C4.17599853,10.7146552 3.5285234,11.0240276 2.83834496,11.0593486 L2.74236228,11.0593486 C2.04106088,11.1004276 1.35312017,10.8551923 0.836125102,10.3798184 C0.319130036,9.90444437 0.0173813833,9.23966594 0,8.53776228 L0,8.40071955 C0,5.65986488 0,0.0274085467 0,0.0274085467" id="Pfad_21"></path>
        </g>
        <g id="Gruppe_21" transform="translate(85.616550, 29.003405)">
          <path d="M7.02044744,11.0182358 L5.26533558,11.0182358 L4.62088044,8.88036912 L2.42699062,8.88036912 L1.72768824,11.0456443 L0,11.0456443 L2.74236228,0 L4.36035603,0.08222564 L7.02044744,11.0182358 Z M3.56507096,4.33055037 L3.40052923,4.33055037 L2.75607409,7.18103922 L4.23694972,7.18103922 C4.23694972,7.18103922 3.853019,5.22132814 3.55135915,4.27573328" id="Pfad_22"></path>
        </g>
      </g>
      <g id="Gruppe_23" transform="translate(108.000000, 51.000000)">
        <polygon id="Pfad_24" points="5 0 5 1.67037037 1.94202899 1.67037037 1.94202899 4.6308642 4.65217391 4.6308642 4.65217391 6.3691358 1.84057971 6.3691358 1.84057971 11 0 11 0 0"></polygon>
      </g>
      <g id="Gruppe_24" transform="translate(146.000000, 51.000000)">
        <polygon id="Pfad_25" points="1.66240409 1.73756219 0 1.73756219 0 0 5 0 5 1.79228856 3.37595908 1.79228856 3.37595908 11 1.71355499 11"></polygon>
      </g>
      <g id="Gruppe_26" transform="translate(152.000000, 51.000000)">
        <polygon id="Pfad_27" points="2 11 0 11 0 0 2 0"></polygon>
      </g>
    </g>
  </g>
</svg>
