<?xml version="1.0" encoding="UTF-8"?> <svg xmlns="http://www.w3.org/2000/svg" viewBox="0 0 510.32 116.87"><defs><style>.cls-1{fill:#ff5100;}.cls-2{fill:none;stroke:#fff;stroke-width:15px;}.cls-3{fill:#fff;}</style></defs><title>site-logo</title><g id="Ebene_2" data-name="Ebene 2"><g id="Ebene_1-2" data-name="Ebene 1"><polygon class="cls-1" points="7.5 108.97 502.82 83.01 502.82 7.9 7.5 33.86 7.5 108.97"></polygon><polygon class="cls-2" points="7.5 108.97 502.82 83.01 502.82 7.9 7.5 33.86 7.5 108.97"></polygon><path class="cls-3" d="M690,281.8c-2.2.12-3.54-1.44-3.54-5.75s1.63-5.84,3.35-5.93a4.68,4.68,0,0,1,3.25,1v8.82A3.46,3.46,0,0,1,690,281.8m-2.2,6.83a9.56,9.56,0,0,0,6-3.1H694l.58,2.18,6.69-.35V254l-8.22.44v7.76l.28,3.43a6.78,6.78,0,0,0-5.54-2.1c-4.87.25-9.75,5.21-9.75,13.06s3.82,12.36,9.75,12.05M651.28,290l8.22-.43V273.82c1.24-1.22,2.1-1.93,3.63-2s2.39.64,2.39,3.7v13.71l8.22-.43V274c0-5.94-2.2-9.66-7.45-9.39a11.48,11.48,0,0,0-7.55,3.85h-.2l-.57-2.84-6.69.35Zm-9.65-26.43c2.67-.14,4.58-2,4.58-4.36s-1.91-4-4.58-3.88-4.59,2-4.59,4.36,1.91,4,4.59,3.88m-4.11,27.15,8.22-.43v-24l-8.22.43Zm-27.82,1.46,8.22-.44V276c1.25-1.22,2.11-1.93,3.64-2s2.39.64,2.39,3.7V291.4l8.21-.43V276.21c0-5.94-2.19-9.66-7.45-9.39a11.24,11.24,0,0,0-7.17,3.45l.38-4.14v-7.77l-8.22.43Zm-18.54-13.89c.48-2.42,2-3.55,3.83-3.65,2.48-.13,3.25,1.46,3.25,3.28Zm4.49,15.2a16.8,16.8,0,0,0,8.7-3.24l-2.67-4.75a10.28,10.28,0,0,1-4.88,1.7c-2.67.14-4.78-.71-5.54-3.55l13.62-.71a17.78,17.78,0,0,0,.33-3.47c0-6.42-3.34-11.42-10.41-11.05-5.84.31-11.48,5.4-11.48,13.16,0,7.95,5.36,12.27,12.33,11.91m-31.44-5.26v-6.61l3.34-.17c3.25-.17,4.78.61,4.78,2.91s-1.53,3.53-4.78,3.7Zm0-12.65v-5.84l2.77-.15c2.68-.14,3.92.56,3.92,2.48s-1.24,3.23-3.92,3.37ZM556,295l12.14-.64c6.69-.35,12.23-3.42,12.23-9.84a6.65,6.65,0,0,0-5.35-7v-.19c2.39-1.09,3.92-4.23,3.92-6.92,0-6.13-5.26-7.48-11.76-7.14l-11.18.58Zm-19.21-13.85c.48-2.42,2-3.55,3.82-3.65,2.49-.13,3.25,1.46,3.25,3.28Zm4.49,15.2a16.8,16.8,0,0,0,8.7-3.24l-2.68-4.75a10.28,10.28,0,0,1-4.87,1.7c-2.68.14-4.78-.71-5.55-3.55l13.62-.71a16.86,16.86,0,0,0,.34-3.47c0-6.42-3.35-11.42-10.42-11.05-5.83.31-11.47,5.4-11.47,13.16,0,8,5.35,12.27,12.33,11.91m-38.9,1.46,8.22-.43V281.62c1.24-1.21,2.1-1.93,3.63-2s2.39.64,2.39,3.71V297l8.22-.43V281.83c0-5.94-2.2-9.66-7.45-9.38a11.4,11.4,0,0,0-7.55,3.85h-.19l-.58-2.85-6.69.35Zm-19.3-5.5c-3.73.19-6-3.24-6-8.89s2.3-9,6-9.23,6,2.94,6,8.6-2.3,9.32-6,9.52m0,7.09c8.6-.45,14.43-6.8,14.43-17.05s-5.83-15.7-14.43-15.25-14.44,6.51-14.44,16.76,5.83,16,14.44,15.54m-29.92-5.05c-2.49.13-3.44-2.12-3.44-5.76s1-6,3.44-6.12,3.44,2.12,3.44,5.76-.95,6-3.44,6.12m0,6.62c6.12-.33,11.85-5.23,11.85-13.18s-5.73-12.26-11.85-11.94S441.3,281,441.3,289s5.73,12.26,11.85,11.94m-42,1.62,7.83-.41v-9a115.67,115.67,0,0,0-1.05-11.82h.19l3,6.79,6.88,13.58,8.41-.44V270.08l-7.84.41v9a111,111,0,0,0,1.05,11.83h-.19l-3-6.84L419.51,271l-8.41.45Zm-19.22-13.84c.48-2.43,2-3.56,3.83-3.66,2.48-.13,3.25,1.46,3.25,3.29Zm4.5,15.19a16.87,16.87,0,0,0,8.69-3.23l-2.67-4.75a10.15,10.15,0,0,1-4.88,1.69c-2.67.14-4.78-.71-5.54-3.54l13.62-.72a17.75,17.75,0,0,0,.33-3.46c0-6.42-3.34-11.43-10.41-11.05-5.83.3-11.47,5.39-11.47,13.15,0,8,5.35,12.28,12.33,11.91m-31,1.05,9.46-.5,7.55-24.35-7.83.41L372,291.09q-.86,3.65-1.72,7.56h-.19q-.85-3.82-1.72-7.38L365.79,281l-8.22.43Zm-22.17-4.59c-1.44.07-2.2-.51-2.2-1.61,0-1.34,1.24-2.65,5.16-3.43v3.26a4,4,0,0,1-3,1.78m-2.87,6.48a10.28,10.28,0,0,0,6.59-3.22h.19l.58,2.27,6.69-.36V292.2c0-7.86-3.73-11-9.94-10.69A21.17,21.17,0,0,0,334,285.22l2.87,5.22c2.49-1.47,4.3-2.24,6-2.33,2.11-.11,3.16.6,3.35,2.32-9.18,1.44-13,4.42-13,9.4,0,3.93,2.68,7.24,7.17,7m-24.28-14.16c.48-2.42,2-3.56,3.83-3.65,2.48-.13,3.24,1.46,3.24,3.28Zm4.49,15.19a16.87,16.87,0,0,0,8.7-3.23l-2.67-4.75a10.19,10.19,0,0,1-4.88,1.69c-2.68.14-4.78-.7-5.54-3.54l13.62-.71a17.87,17.87,0,0,0,.33-3.47c0-6.42-3.34-11.42-10.42-11.05-5.83.3-11.47,5.39-11.47,13.15,0,8,5.36,12.28,12.33,11.91m-35,1.26,20-1v-6.9l-11.76.61V277.55l-8.22.43Zm-18.92-12.81.57-4.63,4.4-.23-.57,4.63Zm-6.31,14.14,4.69-.25,1.05-8.68,4.39-.23L269.4,310l4.69-.25,1.05-8.68,4.58-.24v-5.17l-4,.21.57-4.63,4.4-.23v-5.18L277,286l.86-7.62-4.58.24-1,7.62-4.4.23.86-7.61-4.59.24-.95,7.62-4.3.22v5.18l3.63-.19-.57,4.63-4,.21V302l3.44-.18Z" transform="translate(-225.34 -224.57)"></path></g></g></svg> 