<?xml version="1.0" encoding="UTF-8" standalone="no"?>
<svg
   xmlns:dc="http://purl.org/dc/elements/1.1/"
   xmlns:cc="http://creativecommons.org/ns#"
   xmlns:rdf="http://www.w3.org/1999/02/22-rdf-syntax-ns#"
   xmlns:svg="http://www.w3.org/2000/svg"
   xmlns="http://www.w3.org/2000/svg"
   viewBox="0 0 1133.28 262.60001"
   height="262.60001"
   width="1133.28"
   xml:space="preserve"
   id="svg2"
   version="1.1"><metadata
     id="metadata8"><rdf:RDF><cc:Work
         rdf:about=""><dc:format>image/svg+xml</dc:format><dc:type
           rdf:resource="http://purl.org/dc/dcmitype/StillImage" /></cc:Work></rdf:RDF></metadata><defs
     id="defs6" /><g
     transform="matrix(1.3333333,0,0,-1.3333333,0,262.6)"
     id="g10"><g
       transform="scale(0.1)"
       id="g12"><path
         id="path14"
         style="fill:#231f20;fill-opacity:1;fill-rule:evenodd;stroke:none"
         d="m 3511.88,968.301 c 131.38,-203.153 471.62,-119.281 471.61,158.909 0,165.47 -122.79,301.19 -302.44,271.69 -165.96,-27.25 -282.19,-255.81 -169.17,-430.599 z m 169.17,604.889 c 203.27,18.69 345.93,-73.24 425.47,-184.54 59.31,-83 104.67,-261.29 56.39,-410.091 -64.57,-198.989 -275.35,-318.469 -502.36,-297.321 -207.14,19.301 -368.6,187.223 -389.59,374.212 -13.4,119.32 19.67,246.47 56.38,307.57 63.98,106.46 183.62,194.53 353.71,210.17" /><path
         id="path16"
         style="fill:#231f20;fill-opacity:1;fill-rule:evenodd;stroke:none"
         d="m 2491.78,1557.81 c 74.08,-156.59 148.55,-312.81 220.43,-471.61 79.5,152.88 149.68,315.09 225.55,471.61 87.14,0 174.29,0 261.43,0 0,-290.48 0,-580.962 0,-871.439 -64.93,0 -129.86,0 -194.79,0 0,179.41 0,358.819 0,538.239 -77.21,-155.18 -156.58,-308.188 -230.68,-466.481 -39.3,0 -78.6,0 -117.9,0 -75.71,153.262 -151.9,306.031 -225.55,461.351 -11.96,-167.45 -1.72,-357.109 -5.13,-533.109 -64.93,0 -129.86,0 -194.79,0 3.41,288.77 -6.83,591.209 5.12,871.439 85.44,0 170.88,0 256.31,0" /><path
         id="path18"
         style="fill:#231f20;fill-opacity:1;fill-rule:evenodd;stroke:none"
         d="m 4142.4,1557.81 c 70.06,0 140.12,0 210.18,0 71.28,-181.61 146.45,-359.32 215.29,-543.37 81.52,173.08 149.89,359.31 220.43,543.37 71.77,0 143.54,0 215.29,0 -114.48,-292.18 -233.58,-579.751 -348.57,-871.439 -54.68,0 -109.36,0 -164.03,0 -118.56,288.113 -237.66,575.679 -348.59,871.439" /><path
         id="path20"
         style="fill:#231f20;fill-opacity:1;fill-rule:evenodd;stroke:none"
         d="m 5639.24,1557.81 c -5.89,-72.7 -44.45,-112.75 -61.52,-174.29 -123.02,0 -246.05,0 -369.08,0 0,-58.09 0,-116.19 0,-174.29 79.92,-9.66 218.63,-7 281.95,0 41.45,-96.09 101.78,-215.398 148.65,-322.941 79.51,152.871 149.69,315.071 225.55,471.601 87.14,0 174.29,0 261.44,0 0,-290.48 0,-580.96 0,-871.449 -64.93,0 -129.86,0 -194.79,0 0,179.418 0,358.84 0,538.249 -77.21,-155.178 -156.59,-308.19 -230.69,-466.479 -39.29,0 -78.59,0 -117.9,0 -70.41,134.641 -131.39,278.687 -205.04,410.09 9.9,24.265 19.89,48.469 30.75,71.769 -66.64,0 -133.28,0 -199.92,0 0,-58.097 0,-116.199 0,-174.289 29.11,-11.902 80.27,-1.75 117.9,-5.133 13.4,7.114 14.53,26.493 20.51,41.012 11.95,-128.16 1.71,-278.519 5.13,-415.219 -59.81,0 -119.61,0 -179.42,0 25.67,66.61 55.5,129.047 82.02,194.797 -70.2,15.242 -175.82,-4.949 -246.06,10.25 0,288.774 0,577.552 0,866.322 210.18,0 420.35,0 630.52,0" /><path
         id="path22"
         style="fill:#231f20;fill-opacity:1;fill-rule:evenodd;stroke:none"
         d="m 6874.65,1357.89 c 0,-58.1 0,-116.19 0,-174.29 -143.54,0 -287.07,0 -430.61,0 0,-58.09 0,-116.19 0,-174.29 117.91,-11.955 258.02,-1.71 384.47,-5.12 0,-54.678 0,-109.362 0,-164.042 -128.16,0 -256.31,0 -384.47,0 0,-58.097 0,-116.199 0,-174.289 136.71,-11.961 295.61,-1.711 440.85,-5.129 0,-58.101 0,-116.191 0,-174.289 -211.89,3.399 -437.4,-6.8 -640.76,5.129 3.41,287.071 -6.84,587.79 5.13,866.32 208.45,0 416.92,0 625.39,0" /><path
         id="path24"
         style="fill:#231f20;fill-opacity:1;fill-rule:evenodd;stroke:none"
         d="m 7566.68,809.391 c 11.95,172.586 1.71,367.379 5.12,548.499 64.94,0 129.86,0 194.79,0 0,-290.48 0,-580.96 0,-871.449 -59.38,13.95 -123.74,-18.421 -184.54,0 -37.68,11.43 -79.98,96.739 -107.65,133.278 -100.86,133.269 -219.2,281.269 -312.69,399.841 -3.39,-176.021 6.8,-365.63 -5.13,-533.119 -63.22,0 -126.44,0 -189.67,0 -8.52,278.539 -8.55,592.919 0,871.449 58.1,0 116.2,0 174.29,0 149.01,-175.64 280.84,-368.48 425.48,-548.499" /><path
         id="path26"
         style="fill:#231f20;fill-opacity:1;fill-rule:evenodd;stroke:none"
         d="m 8499.64,1357.89 c 0,-56.39 0,-112.78 0,-169.16 -80.31,0 -160.63,0 -240.93,0 -11.96,-223.839 -1.72,-469.89 -5.13,-702.289 -64.93,0 -129.86,0 -194.79,0 0,232.387 0,464.77 0,697.159 -71.78,11.95 -165.74,1.72 -246.06,5.13 3.39,54.7 -6.8,123 5.13,169.16 227.26,0 454.52,0 681.78,0" /><path
         id="path28"
         style="fill:#231f20;fill-opacity:1;fill-rule:evenodd;stroke:none"
         d="m 2332.87,209.641 c 117.04,-28.68 142.03,185.179 10.26,158.898 -95.79,-19.098 -58.44,-147.109 -10.26,-158.898 z m 0,210.16 c 239.85,39.929 181.1,-327.5627 -30.76,-256.313 -107.04,36.012 -113.23,232.352 30.76,256.313" /><path
         id="path30"
         style="fill:#231f20;fill-opacity:1;fill-rule:evenodd;stroke:none"
         d="m 5654.62,389.051 c -7.25,-18.391 -22.18,-29.09 -30.75,-46.141 -22.17,19.41 -48.24,31.871 -82.02,25.629 -97.81,-18.051 -62.55,-212.57 61.51,-148.66 0,23.93 0,47.851 0,71.769 20.51,0 41.01,0 61.51,0 0,-30.75 0,-61.519 0,-92.269 -28.83,-42.098 -120.03,-56.59 -174.28,-30.758 -164.8,78.457 1.51,363.43 164.03,220.43" /><path
         id="path32"
         style="fill:#231f20;fill-opacity:1;fill-rule:evenodd;stroke:none"
         d="m 6551.7,209.641 c 117.03,-28.68 142.02,185.179 10.25,158.898 -95.78,-19.098 -58.43,-147.109 -10.25,-158.898 z m 0,210.16 C 6791.55,459.73 6732.8,92.2383 6520.94,163.488 6413.9,199.5 6407.71,395.84 6551.7,419.801" /><path
         id="path34"
         style="fill:#231f20;fill-opacity:1;fill-rule:evenodd;stroke:none"
         d="m 2778.85,419.801 c 98.13,9.66 121.48,-126.02 179.41,-164.031 0,54.679 0,109.351 0,164.031 18.8,0 37.59,0 56.39,0 0,-87.141 0,-174.281 0,-261.43 -66.98,-15.019 -88.97,38.449 -117.9,76.891 -24.43,32.449 -41.55,62.187 -61.52,82.019 0,-52.972 0,-105.941 0,-158.91 -18.79,0 -37.59,0 -56.38,0 0,87.149 0,174.289 0,261.43" /><path
         id="path36"
         style="fill:#231f20;fill-opacity:1;fill-rule:evenodd;stroke:none"
         d="m 3829.71,419.801 c 0,-17.082 0,-34.172 0,-51.262 -23.92,0 -47.84,0 -71.77,0 0,-70.059 0,-140.109 0,-210.168 -18.79,0 -37.59,0 -56.39,0 0,68.348 0,136.699 0,205.051 -16.84,10.476 -51.91,2.769 -76.89,5.117 1.39,17.41 -3.97,41.57 5.13,51.262 66.64,0 133.28,0 199.92,0" /><path
         id="path38"
         style="fill:#231f20;fill-opacity:1;fill-rule:evenodd;stroke:none"
         d="m 4111.65,419.801 c 18.79,0 37.59,0 56.39,0 0,-34.172 0,-68.352 0,-102.52 23.99,-11.883 70,-1.761 102.52,-5.121 0,35.879 0,71.762 0,107.641 18.8,0 37.59,0 56.38,0 0,-87.141 0,-174.281 0,-261.43 -18.79,0 -37.58,0 -56.38,0 0,32.469 0,64.93 0,97.399 -24,11.878 -70,1.769 -102.52,5.128 0,-34.179 0,-68.347 0,-102.527 -18.8,0 -37.6,0 -56.39,0 0,87.149 0,174.289 0,261.43" /><path
         id="path40"
         style="fill:#231f20;fill-opacity:1;fill-rule:evenodd;stroke:none"
         d="m 4813.93,419.801 c 0,-18.801 0,-37.59 0,-56.379 -41.01,0 -82.02,0 -123.03,0 -11.68,-7.113 -1.91,-35.692 -5.12,-51.262 37.59,0 75.18,0 112.77,0 0,-17.09 0,-34.18 0,-51.262 -35.88,0 -71.76,0 -107.65,0 -11.68,-7.109 -1.91,-35.687 -5.12,-51.257 44.43,0 88.85,0 133.27,0 0,-17.09 0,-34.18 0,-51.27 -64.93,0 -129.85,0 -194.79,0 0,85.438 0,170.879 0,256.309 53.26,11.679 127.95,1.922 189.67,5.121" /><path
         id="path42"
         style="fill:#231f20;fill-opacity:1;fill-rule:evenodd;stroke:none"
         d="m 6008.32,291.648 c 34.36,-1.886 64.46,0.481 87.15,10.25 6.9,15.481 6.9,40.911 0,56.391 -21.04,11.43 -53.95,10.992 -87.15,10.25 0,-25.629 0,-51.258 0,-76.891 z m -56.39,128.153 c 65.99,-8.5 132.27,15.461 179.42,-15.379 43.6,-28.5 47.35,-129.473 -15.37,-148.652 13.74,-37.52 39.96,-62.559 61.51,-92.282 -13.82,-11.797 -49.44,-1.808 -71.77,-5.117 -30.92,27.18 -28.8,87.399 -92.27,82.02 -11.85,-17.211 -1.8,-56.301 -5.13,-82.02 -18.79,0 -37.59,0 -56.39,0 0,87.149 0,174.289 0,261.43" /><path
         id="path44"
         style="fill:#231f20;fill-opacity:1;fill-rule:evenodd;stroke:none"
         d="m 7054.06,414.68 c 7.52,-84.09 -25.81,-200.68 46.14,-205.039 80.28,-4.879 51.26,120.097 56.38,210.16 18.8,0 37.6,0 56.39,0 -12.62,-76.36 19.46,-142.781 -5.13,-205.051 -27.33,-69.211 -144.09,-77.73 -189.67,-25.621 -38.34,43.84 -22.07,128.242 -25.62,215.293 0,5.129 0,10.258 0,15.379 20.32,-1.879 49.12,4.699 61.51,-5.121" /><path
         id="path46"
         style="fill:#231f20;fill-opacity:1;fill-rule:evenodd;stroke:none"
         d="m 7510.29,419.801 c 68.62,15.64 83.96,-44.36 112.78,-82.02 25.59,-33.461 50.33,-58.32 66.64,-82.011 0,54.679 0,109.351 0,164.031 20.32,-1.879 49.12,4.699 61.51,-5.121 0,-85.43 0,-170.871 0,-256.309 -117.67,-6.59 -114.49,107.649 -179.42,153.789 -11.93,-41.051 -1.73,-104.211 -5.12,-153.789 -18.8,0 -37.6,0 -56.39,0 0,87.149 0,174.289 0,261.43" /><path
         id="path48"
         style="fill:#231f20;fill-opacity:1;fill-rule:evenodd;stroke:none"
         d="m 8110.05,368.539 c -8.45,-41.66 -8.45,-117.238 0,-158.898 148.25,-35.219 147.14,193.629 0,158.898 z m -61.51,-210.168 c 0,87.149 0,174.289 0,261.43 61.57,-0.75 135.85,4.008 174.28,-15.379 79.12,-39.891 86.73,-185.613 0,-230.672 -48.1,-24.988 -97.72,-11.309 -174.28,-15.379" /><path
         id="path50"
         style="fill:#f2521b;fill-opacity:1;fill-rule:evenodd;stroke:none"
         d="m 413.992,1398.55 95.356,-95.36 -240.942,-247.62 H 918.23 v 668.67 l -264.484,-272.72 -93.773,93.39 424.972,424.59 421.845,-421.84 -87.51,-85.93 -263.7,260.95 v -667.11 h 673.77 l -268.8,266.45 85.54,86.34 423.41,-423.411 -422.62,-423.008 -89.47,89.071 279,271.148 H 1055.58 V 260.559 L 1308.3,506.219 1398.55,413.98 984.945,0 567.031,417.922 663.953,516.02 918.23,258.98 V 922.16 H 262.133 L 511.305,670.23 412.027,572.922 0,984.949 413.992,1398.55" /></g></g></svg>